<svg id="Layer_1" data-name="Layer 1" xmlns="http://www.w3.org/2000/svg" viewBox="0 0 608.99 821.5"><defs><style>.cls-1{fill:#f7ec30;}</style></defs><path class="cls-1" d="M220.27,44.55c0,48.2.4,80.5.9,80.5,4.3,0,4.1,3.5,4.1-81.1v-79.9h-5Z" transform="translate(-2.28 35.95)"/><path class="cls-1" d="M409.87,12.05c-6.1,1.6-15.3,6.9-19.2,11.3a54,54,0,0,0-6.8,10.6c-2.7,5.9-3.1,7.6-3.1,15.7,0,8.4.2,9.5,3.8,16.6,2.4,4.9,5.3,9,8,11.4,5.1,4.4,15.1,9.4,19,9.4,2.6,0,2.7.2,2.8,5.2v80.3l-.1,11-5.3,3.2c-11.6,6.9-23.8,20.4-30.5,33.8-5.5,11.1-7.4,18.8-8.1,33.9l-.6,14-2.9-5.5a117.46,117.46,0,0,0-15.5-22.1l-5.1-5.6,2.7-.7c2.6-.6,2.4-.9-4.7-5.4-4.1-2.7-8-4.6-8.7-4.4-1.3.5-9.3-4.5-9.3-5.8,0-.5,1.7-2,3.8-3.3,4.8-3,9.8-2.4,16.6,2.2l4.6,3.1v-3.8c0-3.7.1-3.9,4.3-4.5,7.5-1.2,18.4-7.3,25.1-13.9a53.14,53.14,0,0,0-24.4-89.2c-8.4-2.2-22-1.6-30.5,1.4-11.2,4-21.9,12.8-27.7,22.8-3,5.3-4.5,6.2-6.5,4.2-.7-.7-4.4,1.1-12.7,6.5l-11.7,7.6-11.6-7.5c-6.3-4.1-12.1-7.2-12.7-6.8s-5.6,3.6-11.1,7.2-10.5,6.4-11.2,6.4-6.1-3.2-12.1-7.2l-11-7.2-9.3,6.1c-8.3,5.4-17.9,13.4-17.9,15,0,.3.9,1.1,2,1.7,1.7,1.1,3.3.4,13.5-6.3l11.6-7.5,11.2,7.2c6.2,4,11.7,7.2,12.2,7.2s5.1-2.7,10-6c14.2-9.5,11.7-9.4,24.9-.8l11.6,7.5,11.6-7.6c6.5-4.4,11.9-7.3,12.4-6.8s.3,3.5-.3,6.7l-1.2,5.7-11.3,7.5-11.3,7.4-11.5-7.4c-13.2-8.6-10.7-8.7-24.9.8-4.9,3.3-9.4,6-10,6s-6-3.2-12.2-7.2l-11.2-7.2-11.6,7.5-11.6,7.6-5.2-3.5a42.15,42.15,0,0,0-5.7-3.5c-.3,0-1.4,1.3-2.3,3l-1.8,3,7.1,4.5c3.8,2.5,7.5,4.5,8.1,4.5s6-3.2,11.9-7.1c12.5-8.1,9.9-8.3,25.4,1.9l9,5.9,11.3-7.3c6.3-4.1,11.6-7.4,11.9-7.4s5.4,3.1,11.3,7,11.3,7,11.9,7,5.7-2.9,11.2-6.5c12.5-8.2,13-8.4,13-5.4a39.23,39.23,0,0,0,1.9,7.6c1.9,5.7,1.9,5.8-1,4.2-1.8-.9-3.7,0-13.1,6-6,3.9-11.5,7.1-12.1,7.1s-5.9-3.2-11.7-7-10.8-7-11.2-7-5.8,3.3-12.1,7.4l-11.3,7.4-11.3-7.4c-6.1-4.1-11.4-7.4-11.8-7.4a129.68,129.68,0,0,0-11.4,7c-6,3.8-11.3,7-11.9,7s-4.7-2.4-9.3-5.3-8.7-5.6-9.4-6c-1.4-.9-4.9,5.1-3.6,6.3,1.8,1.7,21.5,14,22.3,14,.5,0,5.5-2.9,11-6.5s10.7-6.8,11.4-7.1,6,2.5,11.7,6.1,10.9,6.9,11.6,7.2,6.2-2.7,12.2-6.6,11.2-7.1,11.6-7.1,4.8,2.6,9.8,5.7l9.1,5.8-11,1.1a100.46,100.46,0,0,0-30.2,7.4l-7.6,2.9-7.8-4.9c-4.3-2.8-8.2-5-8.6-5s-5.6,3.1-11.6,7-11.1,7-11.6,7-5.7-3.2-11.6-7-11.3-7-12-7c-1.9,0-3.6,2.8-4.4,7.1-.7,3.5-.5,3.9.9,3.3l3.2-1.1c.9-.3,6.3,2.7,12.4,6.6,5.9,3.9,11,7.1,11.4,7.1s5.6-3.2,11.6-7.1c11.5-7.5,12.7-7.8,17.5-3.9,2.4,2,2.4,2.1.6,3.3-1.1.7-5.5,3.9-9.9,7.2-8.2,6.2-18.8,13.4-19.7,13.5-.3,0-5.7-3.3-12-7.4l-11.4-7.4-2.8,1.9c-2.3,1.6-2.8,2.8-2.8,6,0,4.3.5,4.6,3.6,2.4,1.9-1.3,2.8-.9,11.5,4.6,5.2,3.4,9.8,6.5,10.3,7,.9.8-3.8,8.9-5.2,8.9-.4,0-3.8-2.1-7.7-4.5-5.9-3.7-7.2-4.2-8.3-3.1-1.6,1.5-.8,7.6.9,7.6.8,0,8.3,4.6,10.8,6.6.2.2-1,3.4-2.7,7.1a110.38,110.38,0,0,0-10.5,47.8c0,6.6.4,24.9.8,40.8.7,26.9.8,28.8,2.6,29.8,2.8,1.5,3.1,0,2.7-15-.2-7.2-.1-13.1.2-13.1,1.7,0,3,8,3,18.7,0,10.1.3,12.2,1.6,12.7,2.8,1.1,2.9.7,2.6-6.9-.2-4.1.1-7.5.6-7.5,1.7,0,3.2,5.2,3.2,11.5,0,5.4.3,6.6,2,7.5,1.9,1,2,.8,2-3.1,0-4.1,0-4.2,2-2.4a7.25,7.25,0,0,1,2,5.5,7.25,7.25,0,0,0,2,5.5c1.9,1.8,2,1.7,2-.3,0-1.2.4-2.2.8-2.2,1.7,0,3.2,2.6,3.2,5.5a7.1,7.1,0,0,0,2,5c2,1.8,2,1.7,2-1s0-2.8,2-1a7.17,7.17,0,0,1,2,5.4,11.37,11.37,0,0,0,2,6.1l2,2.5v-4.3c0-2.3.4-4.2.8-4.2,2.2,0,3.2,2.9,3.2,9.1,0,4.5.6,8.1,2,11l2,4.4v-9.9c0-9.7,0-9.9,1.9-8.2,1.7,1.6,2,3.5,2.2,19.4.4,21.7.4,32,.1,62.6-.3,23.9-.1,25.5,3.1,25.6.4,0,.7-23.4.7-52.1,0-41.2.3-52,1.3-51.7s1.3,12.1,1.7,52.4l.5,51.9,2.3.3,2.2.3v-50.6c0-40.1.3-50.6,1.3-50.3s1.3,21.2,1.5,98.6l.2,98.1-2.7,1.5c-6.8,3.5-12.2,11.8-13,20-1,9.5,3.9,19.8,11.6,24.6l4.1,2.5v38.2l-4.1.7c-6.5,1-14.9,5.5-20,10.6a38.2,38.2,0,0,0,10.9,61.8c5,2.4,6.9,2.7,16.2,2.7,9.5,0,11.1-.3,16.2-2.8a39.15,39.15,0,0,0,18.1-18.5c2.9-6.1,3.2-7.6,3.2-16.2,0-8.3-.4-10.3-2.8-15.5-5.2-11.1-17.1-20.4-28.4-22.1l-4.3-.6v-36.8h5.8a25.42,25.42,0,0,0,25.5-25.5c.1-15.1-11.3-26.5-26.5-26.5h-4.8V525c0-76.4.3-96,1.3-95.7s1.3,11.4,1.5,49.6c.2,45.9.3,49.2,2,49.2.9,0,11.7-10,23.9-22.2l22.1-22.1-7.5-8.7-7.6-8.7-2.3,2.6-2.3,2.6-.1-6c0-4.3-.6-6.9-2-9l-2-3v12c0,10.4-.3,12.3-2,14.5l-2,2.5v-18.5c-.1-16.3-.3-18.9-2-22l-1.9-3.5-.1,25.8c0,21.1-.3,26.3-1.5,28.7a10.42,10.42,0,0,1-2,3c-.3,0-.5-14.2-.5-31.6v-31.6l3,.6c1.7.3,4.4.9,6,1.2,2.6.5,3,1,3,4a15.24,15.24,0,0,0,2,6.6l2,3.3v-6.8c0-6,.2-6.8,1.8-6.5s1.7,1.7,2,10.3c.2,8.1.7,10.5,2.2,12.5l2,2.5v-12.8c0-11.7.2-12.8,1.8-12.5s1.7,1.8,2,12.2c.2,9.6,0,12.2-1.3,13.6s-.9,2.4,5.6,9.8c3.9,4.5,7.4,8.2,7.7,8.2s6.8-6.1,14.2-13.5l13.5-13.4,7,5.4c6.3,5,7.1,5.3,8.3,3.8a10,10,0,0,0,1.2-4.6,9.19,9.19,0,0,0-15.4-6.9c-1.7,1.6-2,1.5-6-3.1-3-3.4-4.8-4.6-5.9-4.1-2.3.9-2.2-1.7.3-5.8a13.15,13.15,0,0,0,2-5c0-1.2,4.4-3.8,6.6-3.8.2,0,.4,1.7.4,3.8a8.75,8.75,0,0,0,12.9,7.8c6-3.1,7-9.9,2.2-14.7l-3-2.9,3.2-1.6a76.27,76.27,0,0,0,7.4-4.6c3.4-2.3,4.7-2.7,6.2-1.8,3.7,1.9,9,1.2,11.8-1.6,2.3-2.3,2.5-3.1,2-7.7-.5-5.1-.4-5.3,4.7-11.1,4.7-5.2,5.5-5.7,7.4-4.7a9.92,9.92,0,0,0,10.9-1.3c2.2-1.9,2.8-3.2,2.8-6.6s-.6-4.7-3.1-6.9l-3-2.7,2.9-6.5c7.2-15.8,10.8-39.4,8.9-57.6a151,151,0,0,0-3.2-18.1,62.32,62.32,0,0,1-2-8.9,13.89,13.89,0,0,0-1.5-4.7c-1.7-3.2-1.9-3.9-.7-3.2.4.2.6-5.1.4-11.9-.5-13.7,1-22.7,5.5-33.7,5.3-13.1,17.1-27.8,28.4-35.6,5.6-3.8,7.3-4.3,7.2-2-.3,6.7-.3,6.8-2.5,6.8a8.5,8.5,0,0,0-3.8,1c-1.1.7-.5,1,2.3,1,5.9,0,4.3,1.9-2,2.2-3.4.2-5.8.8-6.1,1.5-.3,1,1.4,1.3,6.3,1.3,4.1,0,6.4.4,6,1s-4.2,1-8.5,1-8.2.4-8.5,1,2.5,1,7.9,1c4.7,0,8.8.4,9.1,1s-3,1-9.4,1c-13.5,0-14.2,1.8-.9,2.2,14,.4,13,2.2-1.4,2.6-15.7.4-16.5,2.2-1,2.2,7.5,0,12.2.4,12.2,1s-5,1-13,1-13,.4-13,1,5,1,13,1c10.5,0,13,.3,13,1.4s-2.6,1.4-13.7,1.5c-7.6,0-14.1.1-14.5.1s-.8.4-.8,1,5.5,1,14.5,1,14.5.4,14.5,1-5.8,1-15.5,1-15.5.4-15.5,1,5.8,1,15.4,1c9.3,0,15.7.4,16.1,1,.6,1-4.3,1.2-24.5,1.2h-8.5l9.5,1.3a155.56,155.56,0,0,0,16.4,1.4c5.4.1,6.7.4,6.3,1.5-.4.9.4,1.6,2.5,2,5.4,1.1,108,.7,107.3-.4-.4-.6-19.2-1-53-1s-52.6-.4-53-1,17.2-1,51.9-1c45,0,52.6-.2,52.6-1.4s-7.6-1.5-52.2-1.5c-28.8,0-52.2-.4-52.1-.8s23.5-.9,51.9-1.1c33.7-.1,51.3-.6,50.9-1.2s-19-1-51.5-1c-32.8,0-51.1-.4-51.5-1s16.7-1,50.6-1,51-.3,50.3-1-19.6-1.1-50.9-1.2c-32.7-.2-49.9-.6-49.8-1.3s17.7-1.1,49.4-1.3c32-.1,48.8-.6,48.4-1.2s-18.3-1-49.6-1c-32.4,0-48.8-.3-48.4-1s17.7-1,48.8-1c31.7,0,47.8-.3,47.1-1s-18.8-1.1-48.4-1.2c-30.8-.2-47.5-.7-47.5-1.3,0-1,25-1.5,73.8-1.5,12.3,0,18.6-.3,18.2-1s-17-1-46.6-1c-29.9,0-45.9-.3-45.9-1s15.7-1,45.2-1c29.8,0,44.9-.3,44.2-1s-17.6-1.1-44.9-1.2c-26.1-.2-44-.7-44-1.2s17-.9,42.4-.8c37.7.2,42.2.1,41.1-1.3s-6.9-1.5-42.7-1.5c-27.4,0-41.2-.3-40.8-1s14.9-1,40.3-1c26,0,39.2-.4,38.2-1s-16.8-1-39.7-1c-24.4,0-38.4-.4-38.8-1s11.9-1,36.2-1c32.6-.1,36.6-.2,34.9-1.5s-7.7-1.5-36.8-1.5h-34.8v-2.5c0-3.3,3.3-5.3,13.3-8.2a80.73,80.73,0,0,1,63.2,8c8.7,5,22.9,19,27.7,27.2,13.8,23.9,15.3,52,3.8,76-9.3,19.5-29.6,36.9-49.1,42.3-3.5.9-3.7.9-5.3-2.5a24.23,24.23,0,0,1-1.6-3.8c0-.3,2.1-.5,4.8-.5s5.4-.5,6.2-1c1-.7-.7-1-5.7-1-4.2,0-7.3-.4-7.3-1s4.1-1,10.3-1c5.6,0,10.9-.5,11.7-1,1-.7-3-1-12.2-1-12.8,0-13.9.2-16.3,2.2-3.7,3.3-4.3,8.5-1.5,12.1,4,5,6.1,5.2,17.9,1.1,24-8.1,39.8-21.7,50.1-42.9,6.4-13.2,8.5-22.8,8.4-37.5-.4-33-18.4-60.5-48.9-74.6-11.6-5.3-19.1-6.8-34.5-6.8-11.9.1-14.5.4-22,2.8-4.7,1.5-9.5,3-10.8,3.3l-2.2.5v-46.6l.1-46.6h2.7c8.2,0,19.5-5.1,25.9-11.7A38.14,38.14,0,0,0,434.77,15C427.67,11.55,416.87,10.35,409.87,12.05Zm16.7,5.5a32.65,32.65,0,0,1,22.3,18.8c5.4,12,2.9,25.7-6.5,36-4.7,5.1-13.4,9.4-20.1,9.9l-4.5.3-.3-9-.3-9,4.3-2c6.3-2.9,9.1-7.6,8.6-14.3-1.1-12.9-16.1-17.5-24.8-7.5-3,3.4-3.2,4-2.8,9.4.5,6.6,2.9,10.1,8.6,12.5l3.2,1.4v18.2l-3.2-.6c-9.2-1.8-20.3-11.5-23.2-20.3s-3-13.5-.7-21.1a32.67,32.67,0,0,1,23.2-22.6C417.37,15.75,419.67,15.75,426.57,17.55Zm-121,181.8c7.8,5.2,15,9.7,16,10,2.4.9,2.1,2-1.1,3.8-2.6,1.5-3.2,1.5-5.8.1-1.6-.8-6.4-2.8-10.8-4.4a107.87,107.87,0,0,1-10-4.1c-1.2-.6-5-1.3-8.6-1.4a84.29,84.29,0,0,1-9.9-1.1l-3.5-.8,8.9-5.7c4.8-3.1,9.2-5.7,9.7-5.7S297.67,194.25,305.57,199.35Zm-27.8,8.6,3,.7-5.8,3.7a61.51,61.51,0,0,1-7.1,4.3c-1.4.5-14.5-7.4-14.6-8.9C253.27,206.85,273.57,207.05,277.77,208Zm-23.5,10.1c13.9,9.3,11.5,9.2,24.1,1.1,6-3.9,11.4-7.1,11.9-7.1s5.5,3,11.2,6.6,10.7,6.8,11.4,7.1,2.7-.5,4.3-1.6l3-2.2,4,2.5a22.12,22.12,0,0,1,4.5,3.5c.6.9-13.3,11.1-15,11.1-.4,0-5.6-3.2-11.5-7s-11.2-7-11.9-7-6.1,3.2-12,7.1c-12.5,8.1-10.1,8.2-24.2-1.3-4.8-3.2-9.3-5.8-9.9-5.8s-6.1,3.1-12.1,7-11.1,7-11.3,7c-1.2,0-19.4-12.3-19.1-12.8s2.5-1.8,5-3.2c3.6-1.9,5-2.2,6.4-1.4.9.6,3.1,1.9,4.8,2.8l3,1.8,11.5-7.4c6.3-4.2,11.9-7.3,12.4-7S249.57,215,254.27,218.05Zm-31-2a5,5,0,0,1-3,.9c-.9,0-.5-.6,1-1.4C224,214.15,225.67,214.55,223.27,216.05Zm-2.1,31.8c.4-.2,5.5-3.4,11.3-7.2s10.9-6.9,11.2-7c.6-.2,10.6,5.8,10.6,6.4,0,.3-3.5,1.3-7.8,2.3a84.62,84.62,0,0,0-26.7,11.7,36.29,36.29,0,0,1-4.9,3c-.4,0-4.4-2.4-9-5.4l-8.4-5.4-11.5,7.5c-10.1,6.5-11.9,7.3-13.7,6.3-2.1-1.1-2.1-1.2-.4-3.8a55.36,55.36,0,0,1,17.8-17.9l7.9-5,11.4,7.4C215.27,244.85,220.77,248.05,221.17,247.85Zm77.9-9c13.1,8.9,12.3,8.6,18.6,5.8a88.37,88.37,0,0,0,11.6-6.6c5.7-3.9,6.4-4.1,8.7-2.9,5.4,2.9,20.3,22,26.1,33.6l2.2,4.1-4,.7c-6.7,1.1-8.2,7.5-2.9,12.7,2.7,2.8,3.4,3,7.8,2.5l4.9-.6.6,3.7a60.3,60.3,0,0,0,1.3,6.2l.6,2.4-2.8-2.2c-4-3.2-8.9-2.9-12.6.7-2,2-2.9,3.9-2.9,6.1s.9,4.1,2.9,6.1c4,4,9.1,4,13.1.1l2.8-2.9.7,5.3a47.53,47.53,0,0,1-.1,10l-.7,4.7-1.4-2.6c-2.9-5.6-9.8-6.4-14.4-1.8a9,9,0,0,0,3.4,15c3.8,1.3,6.2.7,9.5-2.2,2.6-2.4,2.8-1.6,1.1,6.3-.9,4.2-1.4,5-2.7,4.4-6.2-2.6-12.7.2-13.7,6-1.1,5.5,1.8,9.7,7.9,11.9,1.2.4-1.1,4.5-5,9-1.9,2-3.4,4.6-3.4,5.6s-2.7,5.4-6,9.5c-5.1,6.4-6.5,7.6-9,7.6-6,0-9.5,3.1-10.2,9-.4,3.2-12.8,11.1-24.7,15.9-8.1,3.2-8.4,3.2-11.8,1.6a11.72,11.72,0,0,0-6.3-1.2c-2.1.5-3,.1-3.8-1.6-.9-1.9-1.1-1.4-1.1,3-.1,4-.5,5.3-1.6,5.3s-1.5-1.7-1.5-9.3a71.32,71.32,0,0,0-1.9-16.2c-1-3.9-1.8-7.1-1.7-7.2a65.66,65.66,0,0,1,7.8-2.2,91.37,91.37,0,0,0,14.6-5.5l7.1-3.6,2.7,2.5c7.8,7.3,20-3.5,13.9-12.2-1.5-2.1-1.3-2.6,3.6-9.1l5.1-6.9,2.8,2.9c3.6,3.6,7.8,3.7,11.9.2,2.6-2.1,3.1-3.3,3.1-6.8,0-5-2.7-8.2-7.9-9.2-2.9-.6-3.2-1-2.6-3.3.7-2.8,2.1-4.1,4.7-4.1s5.8-4.8,5.8-8.9-1.4-6.2-4.7-8c-1.7-.9-2.3-2.1-2.3-4.6,0-1.9.5-3.5,1-3.5s2.2-1.1,3.5-2.5c5.1-5,1.8-15.5-4.9-15.5-1.8,0-2.7-.8-3.5-3.1-1.4-4.1-1.5-3.9,1.5-3.9,5.6,0,9.3-3.7,9.4-9.2v-3.8l-6.2,2.4c-3.5,1.3-7,2.6-7.9,3a1.42,1.42,0,0,1-2.2-.8c-.4-1,.4-1.9,2.3-2.8a9.48,9.48,0,0,0,4.2-4.2c1-2.5.9-3.1-.7-4.2s-2.4-1-6,1.2l-4.3,2.5-3.1-3.8a24.25,24.25,0,0,1-3.1-4.4c0-.4,3.3-2.7,7.3-5.2,6.3-4,7.4-4.4,9.2-3.3,7.3,4.7,7.1,4.7,8.1-.1.6-2.9.2-3.4-4.7-6.7s-5.5-3.4-7.5-2.1c-1.2.8-5.9,3.7-10.3,6.6l-8.2,5.1-5.8-4.1c-7.6-5.3-19-10.7-25.8-12.2-2.9-.7-5.2-1.6-5.1-2.1.3-.6,9.7-7.6,10.6-7.7C290.17,233.05,294.27,235.65,299.07,238.85Zm-95.7,19.9,5.7,3.7-3.6,4.2c-3.3,4-3.6,4.2-5.7,2.8s-2.9-1-13.8,6.1l-11.6,7.5-6-3.8c-3.3-2-6-4.3-6.1-5a20.31,20.31,0,0,1,2-5.3c2.2-4.1,2.2-4.1,7.2-.7l2.7,1.9,11.3-7.5c6.2-4.1,11.5-7.5,11.7-7.5S200.17,256.75,203.37,258.75Zm-9,24.4c-1.5,3.1-3.3,6.9-3.9,8.6-.6,2-2.9,4.4-6.2,6.6-2.9,2-4.7,3.8-4.1,4.2,1.2.7,1.6,89.5.5,89.5-.4,0-1.3-.8-2-1.8-1.1-1.3-1.3-10.7-1.4-45.8,0-42.8-.1-44.1-2-45.9s-2-1.7-2,41.1-.1,42.9-2,40.4-2-4.4-2-45.3c0-41.4-.1-43-2-45.4l-2-2.6v41.4l-.1,41.4-2-3.7c-1.9-3.6-1.9-5.6-1.7-41.3.2-20.6.1-37.5-.1-37.5a6.47,6.47,0,0,0-2.3,1.7c-1.7,1.5-1.8,3.9-1.9,31.2-.1,27-.2,29.1-1.5,24.1-1.6-6.9-2.3-25.2-1.4-39,.6-9.7,4.3-26,5.9-26,.4,0,1.4,1.5,2.4,3.2a23.18,23.18,0,0,0,6.7,6.5l5,3.3,11.2-7.4c6.2-4.1,11.4-7.4,11.5-7.2A43.83,43.83,0,0,1,194.37,283.15Zm-8.4,28.1c-.2,1.3-.4.5-.4-1.7s.1-3.2.4-2.3A13.39,13.39,0,0,1,186,311.25Zm3,57.5c.2,17.2,0,31.3-.4,31.3-3.1,0-3.3-2.7-3.2-39.4.1-35.8.2-36.8,1.6-30.1C188.17,335.65,188.67,345.85,189,368.75Zm8.3,14.3c0,13.2-.4,24-.8,24-2.9,0-3.2-3-3.2-28.4v-26.1l2,3.3C197.17,358.85,197.27,360.85,197.27,383.05Zm8,8.2c0,19.4-.1,20.9-1.7,20.6s-1.8-2.3-2-23.3l-.3-23,2,2.4C205.17,370.05,205.27,371.85,205.27,391.25Zm7,6c0,15.5-.3,19.9-1.2,19.6s-1.4-5.7-1.6-21.3c-.2-18.5-.1-20.6,1.3-19.5C212,377.05,212.27,380.65,212.27,397.25Zm7.8,4.7c.2,15.3,0,19.2-1,18.9s-1.4-5.2-1.6-19.7c-.2-15.3,0-19.2,1-18.9S219.87,387.45,220.07,402Zm8,4c.2,14.5,0,18.2-1,17.9s-1.4-5-1.6-18.7c-.2-14.5,0-18.2,1-17.9S227.87,392.25,228.07,406Zm8.9-13.6a50.59,50.59,0,0,1,1.9,8.2l1.1,7,.2-6.8c.1-6,.3-6.7,2.1-6.7s2,.7,2,14.4c0,8,.5,15.7,1,17.2,1.3,3.3,1.1,3.5-2.5,2.6-2.3-.7-3.2-1.8-4.6-5.8l-1.7-4.9-.1,4.3c-.1,3.6-.4,4.3-1.8,4-1.6-.3-1.8-2.1-2.1-18-.2-17.3-.2-17.6,1.8-17.1A5.4,5.4,0,0,1,237,392.35Zm13.7,3.3c1.4.5,1.6,3,1.6,17,0,15.7-.1,16.4-2,16.4s-2-.7-2-17c0-9.4.2-17,.4-17A15.63,15.63,0,0,1,250.67,395.65Zm24.6,17.4c0,14.4-.2,17-1.5,17s-1.5-2.6-1.5-17,.2-17,1.5-17S275.27,398.65,275.27,413.05Zm-15,.5c0,15.8-.1,16.5-2,16.5s-2-.7-2-16.5.1-16.5,2-16.5S260.27,397.75,260.27,413.55Zm8,0c0,15.8-.1,16.5-2,16.5s-2-.7-2-16.5.1-16.5,2-16.5S268.27,397.75,268.27,413.55Zm-32,57c0,36.6-.7,47.1-3.2,50-.4.5-.8-19.1-.8-43.6s.3-44.8.6-45.2a2.26,2.26,0,0,1,2,0C236.07,432.15,236.27,438.65,236.27,470.55Zm54.6-25.9a2,2,0,0,1-1.6,1.4c-1.5,0-1.3-12.7.3-13.3.8-.3,1.3,1.3,1.5,5.1C291.27,440.85,291.17,444,290.87,444.65Zm-7.6-2.7c0,6.1-.3,8-1.5,8.5s-1.5-.8-1.5-7.9c0-6.9.3-8.5,1.5-8.5S283.27,435.55,283.27,442Zm-8.2,3.3c-.2,7-.7,10.3-1.5,10.6-1,.3-1.3-2.2-1.3-10.2,0-8.9.3-10.6,1.5-10.6S275.27,436.65,275.07,445.25Zm-54.8,279v9.3l-3.7,2c-7.7,4.2-10.3,12.2-6.3,19.3,3.1,5.5,7.3,7.6,13.9,7,11.5-1.1,16.6-13.1,9.6-22.4a16.92,16.92,0,0,0-5.4-4.4l-3.1-1.2v-19l3.5.6c26.9,5.1,36.6,38.8,16.4,57-7,6.3-14.3,8.9-23.9,8.4-9.1-.5-15.2-3.2-21.5-9.4-7-7.1-9-12.2-9-23.4,0-8.3.4-10.1,2.7-14.5,2.6-5.1,9.4-12.1,13.9-14.6,2.7-1.4,9.7-3.7,11.7-3.8C220,715.05,220.27,717.55,220.27,724.25Z" transform="translate(-2.28 35.95)"/><path class="cls-1" d="M333.77,374.55c-2.8,2.7-3.4,8.8-1.2,11.6,5.5,7.2,16.7,3.8,16.7-5.1,0-5.6-3.4-9-9-9C337.27,372.05,335.57,372.65,333.77,374.55Z" transform="translate(-2.28 35.95)"/><path class="cls-1" d="M283.57,399.45a9.17,9.17,0,0,0-.4,13,9,9,0,0,0,13.5-.5c3.5-4.1,3.4-8.3-.3-12S287.57,396.05,283.57,399.45Z" transform="translate(-2.28 35.95)"/><path class="cls-1" d="M308.87,399.55c-2,1.8-2.6,3.4-2.6,6.5,0,5.5,3.4,9,8.8,9,8.4,0,12.1-8.4,6.6-14.9C318.27,396.15,312.87,395.85,308.87,399.55Z" transform="translate(-2.28 35.95)"/><path class="cls-1" d="M161.27,16.85c-10.9,5.5-10.5,20.4.8,25.7l4.2,1.9v58.4c0,51.8.2,58.3,1.5,57.2s1.5-8.8,1.5-58.4V44.55l4.4-2.3c5.8-3.1,8-7.3,7.4-14.1-.6-5.8-3.2-9.5-8.5-11.7C168.27,14.65,165.47,14.65,161.27,16.85Z" transform="translate(-2.28 35.95)"/><path class="cls-1" d="M294.87,56.65c-7.1,2.2-14,9.5-16.2,17-4.9,17,7,33.7,24.1,33.8,7.9,0,12.9-1.8,18.2-6.7,7.5-6.9,10.2-15,8.3-24.3A26.59,26.59,0,0,0,294.87,56.65Z" transform="translate(-2.28 35.95)"/><path class="cls-1" d="M233.07,123.05a34.74,34.74,0,0,0-7.3,4c-4.6,3.2-4.8,3.2-7.6,1.6-2.6-1.5-3.1-1.5-6.9,0l-4.1,1.7,6.6,4.4,6.7,4.5,11.1-7.3c6.2-3.9,11.7-7.2,12.3-7.2S250,128,256,132l11.1,7.2,7.9-5.1c4.3-2.8,7.9-5.5,8.1-5.9s-1.6-1.3-3.9-1.9c-3.7-.9-4.6-.8-8.1,1.4l-4,2.5-6.2-4c-6.2-4.1-6.3-4.1-15.7-4C240,122.15,234.57,122.55,233.07,123.05Z" transform="translate(-2.28 35.95)"/><path class="cls-1" d="M439.27,184.05c-1.5.5,3.8.8,13,.8s14.5-.3,13-.8-7.2-.8-13-.8S440.67,183.65,439.27,184.05Z" transform="translate(-2.28 35.95)"/><path class="cls-1" d="M424.27,188.05c-1,.6,8.6,1,28,.9,17.4,0,28.7-.4,27.5-.9C477,186.85,426.17,186.85,424.27,188.05Z" transform="translate(-2.28 35.95)"/><path class="cls-1" d="M379.27,241.45c0,1.4,2,1.6,17.3,1.5,13.4,0,16.6-.3,14.7-1.1-1.4-.6-9.1-1.3-17.2-1.6C381,239.85,379.27,240.05,379.27,241.45Z" transform="translate(-2.28 35.95)"/><path class="cls-1" d="M429.77,241.55c4.2,2,95.9,2.2,95.3.2-.4-.9-11.3-1.2-49.4-1.4C433.47,240.25,427.17,240.35,429.77,241.55Z" transform="translate(-2.28 35.95)"/><path class="cls-1" d="M414.27,244.05c0,.6-6.7,1-18,1s-18,.4-18,1,6.6,1,17.9,1c10.9,0,18.2.4,18.6,1s-5.8,1-17.9,1c-15.9,0-18.6.2-18.6,1.5s2.7,1.5,18,1.5c11.3,0,18,.4,18,1s-6.8,1-18.5,1-18.5.4-18.5,1,6.8,1,18.5,1c11.4,0,18.5.4,18.5,1s-7.2,1.1-18.2,1.2c-24.1.4-23.9,2.2.2,2.4,9.6.1,17.7.6,18,1s-7.7,1-17.7,1.2c-11.1.1-18.3.6-18.3,1.2s6.9,1,18,1c11.3,0,18,.4,18,1s-6.7,1-18.1,1c-12.3,0-18,.3-17.7,1.1s6.5,1.1,17.8,1.2c23.8.3,24.1,2,.5,2.7-9.9.3-16.8.7-15.3.8,2.6.2,2.6.3,1.2,2.9-1.8,3.5-1.8,4.7,0,8.2a9.12,9.12,0,0,0,14.7,2.2c3-3.1,3.7-6.7,1.9-10.2-1-1.8-.7-1.9,7-1.9,4.7,0,8,.4,8,1s-1.7,1-3.8,1h-3.8l.4,4a8.59,8.59,0,0,0,3.4,6.5c4.1,3.4,8.2,3.3,12-.5l3-3h27.6c18.2,0,27.3-.3,26.6-1s-12.9-1.1-31.2-1.2c-19.1-.2-30.3-.7-30.5-1.3s10-1.1,28.6-1.3,28.6-.6,28.2-1.2-11.3-1-28.5-1c-17.5,0-28.1-.4-28.5-1s8.6-1,26.1-1,26.5-.3,25.8-1-11.4-1.1-26.2-1.2c-16.2-.2-25.1-.7-25-1.3s8.7-1.1,22.3-1.2c12.1-.1,22.7-.3,23.5-.3,1.3,0,1.3-.1,0-1-.9-.6-11.3-1-24.2-1-14.5,0-22.8-.4-22.8-1s7.7-1,21.2-1c13.8,0,20.9-.3,20.2-1-.5-.5-9.6-1.1-20.9-1.2-11-.2-19.9-.7-19.8-1.1s8.2-.8,17.9-.9c15.1-.1,17.4-.3,15.9-1.5-1.4-1-6.1-1.3-18.3-1.3-10.6,0-16.1-.3-15.7-1s6.4-1,14.8-1c9.5,0,13.7-.3,12.7-1-.8-.5-7.2-1-14.2-1-7.4,0-12.9-.4-13.3-1s3.1-1,9.6-1c8.2,0,10.1-.3,9.1-1.3-.8-.7-4.9-1.3-10.2-1.5-9-.4-11.7-2.1-3.7-2.3l4.2-.1-3.5-1a29.35,29.35,0,0,1-5.2-1.9C415.77,242.75,414.27,242.85,414.27,244.05Z" transform="translate(-2.28 35.95)"/><path class="cls-1" d="M439.77,246.05c2.9,1.3,86.8,1.3,86,0-.4-.6-16.2-1-44.3-.9C456.17,245.15,438.57,245.55,439.77,246.05Z" transform="translate(-2.28 35.95)"/><path class="cls-1" d="M93.77,249c-16.5,7.6-20.4,29.3-7.7,42s33,9.9,41.7-6.1c2.4-4.3,2.9-6.5,2.9-11.8-.1-7.5-1.8-12.1-6.5-17.5C117.17,247.65,103.17,244.55,93.77,249Z" transform="translate(-2.28 35.95)"/><path class="cls-1" d="M448.67,250.55c3,2.3,77.6,2.2,77.6,0,0-1.3-5.1-1.5-39.7-1.5C451.37,249.15,447,249.25,448.67,250.55Z" transform="translate(-2.28 35.95)"/><path class="cls-1" d="M455.77,255.05c.4.6,13.3,1,35.6,1,22.6,0,34.9-.4,34.9-1s-12.5-1-35.6-1C467.27,254.05,455.37,254.35,455.77,255.05Z" transform="translate(-2.28 35.95)"/><path class="cls-1" d="M462.67,259.55c2.8,2.1,63.6,2.1,63.6,0,0-1.3-4.8-1.5-32.7-1.5C464.87,258.15,461,258.25,462.67,259.55Z" transform="translate(-2.28 35.95)"/><path class="cls-1" d="M468.27,264.05c2.1,1.3,58,1.3,58,0,0-.6-10.6-1-29.7-1C477,263.05,467.27,263.45,468.27,264.05Z" transform="translate(-2.28 35.95)"/><path class="cls-1" d="M472.87,268.05c1.5,1.5,52.7,1.5,53.2,0,.3-.7-8.4-1-26.9-1C480.47,267.05,472.17,267.35,472.87,268.05Z" transform="translate(-2.28 35.95)"/><path class="cls-1" d="M478.77,273.05c.4.6,9.2,1,23,1s22.6-.4,23-1-7.5-1-23-1S478.37,272.35,478.77,273.05Z" transform="translate(-2.28 35.95)"/><path class="cls-1" d="M482.77,277.05c.4.6,8.5,1,21.1,1,12.9,0,20.4-.4,20.4-1s-7.7-1-21.1-1C489.47,276.05,482.37,276.35,482.77,277.05Z" transform="translate(-2.28 35.95)"/><path class="cls-1" d="M486.57,281.55c.5,1.4,35.7,1.9,35.7.5,0-.6-5.6-1-15.2-1.1-8.4-.1-16.5-.2-18.1-.3S486.37,281,486.57,281.55Z" transform="translate(-2.28 35.95)"/><path class="cls-1" d="M428.77,286.05c.4.6,10.7,1,27.6,1,17.8,0,26.8-.3,26.4-1s-10.7-1-27.6-1C437.37,285.05,428.37,285.35,428.77,286.05Z" transform="translate(-2.28 35.95)"/><path class="cls-1" d="M490.77,286.05c.4.6,6.5,1,15,1s14.6-.4,15-1-4.8-1-15-1S490.37,285.35,490.77,286.05Z" transform="translate(-2.28 35.95)"/><path class="cls-1" d="M436.37,290.65c.9,1.1,5.8,1.4,26,1.4,22.5,0,28.1-.6,23.4-2.4-.8-.3-12.6-.5-26.1-.5C438.67,289.25,435.37,289.45,436.37,290.65Z" transform="translate(-2.28 35.95)"/><path class="cls-1" d="M494.37,290.65c.9,1.2,3.7,1.4,12.8,1.2,15.9-.4,14.8-2.3-1.4-2.4C495,289.25,493.37,289.45,494.37,290.65Z" transform="translate(-2.28 35.95)"/><path class="cls-1" d="M441.77,295.05c.3.6-.4,1-1.7,1-2.7.1-5,1.7-6.6,4.7-1.9,3.5-1.4,6.9,1.4,10.2,5.4,6.4,16.2,2.3,15.6-5.9,0-.3,10.3-.4,22.9-.2,15.5.2,22.9,0,22.9-.7s-7.6-1.1-22.9-1.1c-14.3,0-23.2-.4-23.6-1s7-1,21.5-1c17.3,0,22.1-.3,21.8-1.3s-6.2-1.3-23.9-1.5c-13.5-.1-23.7-.6-24.3-1.2s7-1,22.2-1c14.8,0,23.2-.4,23.2-1s-8.9-1-24.6-1C449.57,294.05,441.37,294.35,441.77,295.05Z" transform="translate(-2.28 35.95)"/><path class="cls-1" d="M496.77,295.05c.3.6,4.8,1,10.1,1,5.6,0,9.4-.4,9.4-1s-4-1-10.1-1C499.77,294.05,496.37,294.45,496.77,295.05Z" transform="translate(-2.28 35.95)"/><path class="cls-1" d="M384.57,298.45c-3.9,3.3-3.8,9.9.1,13.3,4.1,3.5,9.7,3.2,13-.8a8,8,0,0,0,0-11.8C394.37,295.15,388.77,294.85,384.57,298.45Z" transform="translate(-2.28 35.95)"/><path class="cls-1" d="M409.77,298.55c-1.9,1.8-2.5,3.5-2.5,6.5s.6,4.7,2.5,6.5,3.5,2.5,6.5,2.5,4.7-.6,6.5-2.5,2.5-3.5,2.5-6.5-.6-4.7-2.5-6.5-3.5-2.5-6.5-2.5S411.57,296.65,409.77,298.55Z" transform="translate(-2.28 35.95)"/><path class="cls-1" d="M500.27,299.55c1.6,2,12.1,1.7,12.8-.3.3-.9-1.5-1.2-6.8-1.2C499.87,298.05,499.17,298.25,500.27,299.55Z" transform="translate(-2.28 35.95)"/><path class="cls-1" d="M143.77,301.05c-1.9,2.1-2,3.8-2.3,42.5l-.3,40.2,2.3.6a4.1,4.1,0,0,0,2.5.3c.2-.2.2-19.5.1-43l-.3-42.8Z" transform="translate(-2.28 35.95)"/><path class="cls-1" d="M502.77,304.05c.3.5,1.9,1,3.5,1s3.2-.5,3.5-1-1-1-3.5-1S502.37,303.45,502.77,304.05Z" transform="translate(-2.28 35.95)"/><path class="cls-1" d="M135.87,309.25c-1.4,1.9-1.6,7.3-1.6,38,0,35.1,0,35.8,2,35.8s2-.7,2-38c0-20.9-.2-38-.4-38S136.67,308.05,135.87,309.25Z" transform="translate(-2.28 35.95)"/><path class="cls-1" d="M456.27,308.55c1,1.2,4.8,1.4,22.2,1.4,15.5,0,20.8-.4,20.5-1.2s-6.6-1.3-22.2-1.5C457.57,307.05,455.17,307.15,456.27,308.55Z" transform="translate(-2.28 35.95)"/><path class="cls-1" d="M505.27,308.15c0,.5.5.7,1,.4s1-.8,1-1.1-.4-.4-1-.4A1.1,1.1,0,0,0,505.27,308.15Z" transform="translate(-2.28 35.95)"/><path class="cls-1" d="M459.77,313.05c.4.6,8.5,1,21.1,1,12.9,0,20.4-.4,20.4-1s-7.7-1-21.1-1C466.47,312.05,459.37,312.35,459.77,313.05Z" transform="translate(-2.28 35.95)"/><path class="cls-1" d="M462.87,317.05c1.4,1.4,32.4,1.4,33.8,0,.7-.7-4.6-1-16.9-1S462.17,316.35,462.87,317.05Z" transform="translate(-2.28 35.95)"/><path class="cls-1" d="M127.87,319.25c-1.4,1.9-1.6,6.7-1.6,32.5,0,29.6,0,30.3,2,30.3s2-.7,2-32.5c0-17.9-.2-32.5-.4-32.5S128.67,318.05,127.87,319.25Z" transform="translate(-2.28 35.95)"/><path class="cls-1" d="M520.27,320.55c-15.4,4.4-27,19.4-27,35,0,11.2,7.4,24.6,16.8,30.6,27.6,17.5,62.8-7.7,54.8-39.1C559.77,327.15,539.57,315.15,520.27,320.55Z" transform="translate(-2.28 35.95)"/><path class="cls-1" d="M385.57,322.85c-8.3,6.5-1.6,19.4,8.4,16.1a9,9,0,0,0,3.4-15C394,320.55,389.07,320.05,385.57,322.85Z" transform="translate(-2.28 35.95)"/><path class="cls-1" d="M410.37,323.65c-8.1,6.8.5,19.7,9.9,14.9,3.6-1.9,5-4.3,5-8.8,0-4.3-4.6-8.7-9-8.7A10.59,10.59,0,0,0,410.37,323.65Z" transform="translate(-2.28 35.95)"/><path class="cls-1" d="M435.17,324c-5.1,5.2-3.4,12.8,3.5,15.1,7.4,2.4,14.1-4.5,11.4-12.1C448,320.85,439.87,319.25,435.17,324Z" transform="translate(-2.28 35.95)"/><path class="cls-1" d="M120,331.55c-1.4,3-1.7,7.1-1.7,27,0,22.8.1,23.5,2,23.5s2-.7,2-27c0-14.9-.1-27-.3-27A14,14,0,0,0,120,331.55Z" transform="translate(-2.28 35.95)"/><path class="cls-1" d="M111.87,348.35c-1.2,3.2-1.6,7.8-1.6,19,0,14,.1,14.7,2,14.7s2-.7,2-19c0-10.5-.2-19-.4-19S112.77,346,111.87,348.35Z" transform="translate(-2.28 35.95)"/><path class="cls-1" d="M385.87,348.15c-7.6,6-3.8,16.9,5.9,16.9,3.4,0,8.5-5,8.5-8.4,0-4.2-1.8-7.4-4.9-9.1C391.37,345.55,389.07,345.65,385.87,348.15Z" transform="translate(-2.28 35.95)"/><path class="cls-1" d="M412.67,347.05c-3.2,1.3-5.4,5-5.4,9.1,0,4.6,4.5,8.9,9.2,8.9,4.3,0,8.8-4.8,8.8-9.4C425.27,349.25,418.37,344.55,412.67,347.05Z" transform="translate(-2.28 35.95)"/><path class="cls-1" d="M437.67,347.05c-5.9,2.4-7.2,10.4-2.5,15.1,3.9,3.8,8,3.9,12.3,0s4.4-9.3-.1-13.3C444.17,346,441.47,345.45,437.67,347.05Z" transform="translate(-2.28 35.95)"/><path class="cls-1" d="M462.37,347.45c-2.6,1.5-5,5.1-5.1,7.9-.1,5.7,6.1,10.5,12,9.2,3.2-.7,7-5.4,7-8.7a10.59,10.59,0,0,0-5.1-8.4C467.77,345.75,465.47,345.75,462.37,347.45Z" transform="translate(-2.28 35.95)"/><path class="cls-1" d="M17.87,356.55c-5.6,2-8.7,4.5-12,9.9-3.5,5.5-4.6,14.2-2.6,20.1,1.6,4.8,7.2,11.1,12.4,13.7,10,5.2,24,1.1,30.1-8.7,3.6-5.8,4.6-15.8,2.3-21.5A24.24,24.24,0,0,0,17.87,356.55Zm17.4,3.9c6.6,3.3,10.3,9.1,10.8,17,.3,4.9,0,7.1-1.7,10.3-10.5,20.7-40.8,12-38.9-11.1C6.67,362.45,22.37,353.85,35.27,360.45Z" transform="translate(-2.28 35.95)"/><path class="cls-1" d="M19.57,365.65a13.82,13.82,0,0,0-7.3,12.3c0,8.5,5.8,14.5,14.1,14.5,8.8,0,14.3-6.2,13.6-15.2-.3-4.5-.9-5.9-3.9-8.9s-4.5-3.6-8.5-4A15.18,15.18,0,0,0,19.57,365.65Z" transform="translate(-2.28 35.95)"/><path class="cls-1" d="M104.47,375.45c-.7,4.4-1.1,8-.9,8.2s.8-.1,1.5-.5c.9-.5,1.2-3,1-8.2l-.3-7.4Z" transform="translate(-2.28 35.95)"/><path class="cls-1" d="M384.47,374.25c-3,3.3-3.6,7-1.8,10.7,3.1,5.9,9.9,7,14.7,2.2a8.89,8.89,0,0,0-1-13.8C393.57,371.25,386.87,371.75,384.47,374.25Z" transform="translate(-2.28 35.95)"/><path class="cls-1" d="M409.77,374.55a9.17,9.17,0,0,0,.1,13,9.07,9.07,0,0,0,15.4-6.7c0-5.4-3.5-8.8-9-8.8C413.27,372.05,411.57,372.65,409.77,374.55Z" transform="translate(-2.28 35.95)"/><path class="cls-1" d="M436.47,372.75c-1.8.7-4.2,5.7-4.2,8.8,0,3.9,5,8.5,9.2,8.5,6.9,0,11.4-7,8.3-12.9a11.1,11.1,0,0,0-3.4-4.1C444.37,372.05,438.77,371.85,436.47,372.75Z" transform="translate(-2.28 35.95)"/><path class="cls-1" d="M459.77,375.25c-7.6,9,5.3,20.2,13.6,11.9,3.7-3.7,3.8-7.9.3-12-2.1-2.6-3.3-3.1-6.9-3.1S462,372.55,459.77,375.25Z" transform="translate(-2.28 35.95)"/><path class="cls-1" d="M118.27,398.05c0,10.3-.1,11-2,11s-2-.7-2-10.5-.1-10.5-2-10.5-2,.7-2,11c0,9.1-.3,11-1.5,11-.8,0-1.5.4-1.5,1a1.08,1.08,0,0,0,1,1c2.6,0,.4,2-6.5,5.9s-7.7,4.2-10.6,3.1c-3.9-1.6-6.4.2-3.4,2.4,1.8,1.3,1.6,1.5-2.1,3.8-2.1,1.4-5.4,3.3-7.1,4.2-5.5,2.8-6.6,5.5-6.4,15.6.1,5-.1,9-.4,9a11,11,0,0,1-3-1.6c-2.4-1.6-2.5-1.5-2.5.5,0,1.4,1.1,2.8,3,3.9,3,1.7,3,1.7,3,10.9,0,5.1-.3,9.3-.8,9.3a8.74,8.74,0,0,1-3-1.6c-2-1.4-2.2-1.4-2.2.3a4.77,4.77,0,0,0,1.2,3.1,5.51,5.51,0,0,1,1.3,3.5c0,1.5.5,2.1,1.8,1.9s1.7.5,1.7,4c0,2.4.7,5.2,1.5,6.2,1.4,1.8,1.5,1.4,1.5-4.3,0-3.4.4-6.1.8-5.9s4.3,2.3,8.6,4.8l7.7,4.4-.3,9.8-.3,9.7,3,1.4c2.7,1.3,3.3,1.3,5,0,1.1-.8,4.8-2.9,8.1-4.8l6.2-3.5,8.1,4.6a79,79,0,0,1,7.9,4.9c-.2.2-2.3,1.5-4.8,2.9l-4.5,2.6h4c2.2-.1,4.9-.7,6-1.5a6.07,6.07,0,0,1,5.1-.9c4.1.8,6.2-.3,3.8-2-1.5-1.1-.8-1.8,5.5-5.4l7.1-4.1v3c0,2.7.2,2.8,2,1.7a4.85,4.85,0,0,0,2-4.3c0-2.6.8-3.4,6-6.3,5.4-3,8.1-3.2,4.7-.3-1.1.8-1.3,3.8-.9,13.4l.5,12.3-5.9,1.8a47.77,47.77,0,0,0-16.9,9.2l-3,2.6,3.5-.7c4.3-.8,18.5-7.5,22.3-10.5l2.7-2.1v-15.2c0-13.5.3-15.5,2-17.7l2-2.5v10.1c0,10,.5,11.4,3.7,11.4.4,0,.3-9.2,0-20.4-.5-17.5-.3-20.4.9-19.9.9.3,1.4-.2,1.4-1.5a3.07,3.07,0,0,0-1.5-2.6c-1.2-.4-1.5-2.5-1.5-10.1,0-5.3.3-9.4.8-9.2s.6-8.8.4-20.3c-.2-18.7-.5-20.9-2.1-22.4-1.8-1.7-1.9-1.1-2.2,16.3-.3,9.9-.7,18.2-1,18.5s-4-1.3-8.2-3.6l-7.7-4.3v-8.3c0-4.8-.4-8.2-1-8.2s-1-4.8-1-12.4c0-12.6-.3-13.6-4.1-13.6-.5,0-.9,4.8-1,10.7v10.8l-7.8,3.9-7.7,3.9L126,418c-4.2-2.4-7.7-4.7-7.7-5s1.4-1.2,3.2-2,2.6-1.5,2-1.7c-.8-.2-1.2-3.8-1.2-11.3,0-10.2-.1-10.9-2-10.9S118.27,387.75,118.27,398.05Zm-6,27v8l-4.8-2.7c-2.7-1.6-5.9-3.5-7.2-4.4l-2.4-1.6,6.5-3.6c3.5-2,6.7-3.7,7.2-3.7S112.27,420.65,112.27,425.05Zm11.3-4.4c3.4,2,6.3,3.7,6.5,3.9a58.89,58.89,0,0,1-6.7,4.2l-6.9,4.1-.4-6.9c-.3-6.9-.1-8.9.9-8.9A72.46,72.46,0,0,1,123.57,420.65Zm28.7,4.3v8l-7.1-4.1c-3.8-2.2-6.7-4.3-6.4-4.6.9-.9,12-7.1,12.8-7.2C152,417.05,152.27,420.65,152.27,425Zm-50.4,6.3c4.1,2.4,7.3,4.6,7.1,5s-3.5,2.7-7.6,5.1l-7.4,4.4-7.9-4.5c-4.3-2.4-7.8-4.7-7.8-5.1,0-.7,13.9-8.8,15.4-9C94.17,427.05,97.87,429,101.87,431.25Zm30,12.5c-.2.2-3.4-1.2-7-3.3-4-2.3-6.2-4.2-5.7-4.7a57.92,57.92,0,0,1,6.8-4.3l5.8-3.3.3,7.6C132.27,439.85,132.17,443.45,131.87,443.75Zm15-9.6,3.6,2.2-6.7,3.8a55.89,55.89,0,0,1-7.1,3.9c-.2,0-.4-3.6-.4-8.1v-8.1l3.5,2.1C141.67,431.15,144.87,433.05,146.87,434.15ZM83,443.55c3.4,2,6.3,3.9,6.3,4.3,0,.6-9.9,6.6-13.2,8-.5.2-.8-3.3-.8-7.7s.3-8.1.7-8.1A66.53,66.53,0,0,1,83,443.55Zm29.3,4.6v8l-7-3.8c-3.8-2.1-7-4-7-4.3,0-.7,12.2-8,13.3-8C112,440.05,112.27,443.65,112.27,448.15Zm15.9.9c-1.2.8-4.4,2.7-7.1,4.3l-4.8,2.7V440l7.1,3.8C130.27,447.45,130.37,447.55,128.17,449.05Zm24.1-.9v8l-5-2.8c-10-5.6-9.9-5.3-2.8-9.5a74.29,74.29,0,0,1,7.1-3.8C152,440.05,152.27,443.65,152.27,448.15Zm11.8-4.2,6.3,3.9-3.8,2.2c-2.1,1.3-5.3,3.2-7,4.2l-3.3,2v-8.1c0-4.5.3-8.1.8-8.1A79.19,79.19,0,0,1,164.07,444Zm-72.2,22.8c-.5.5-13.6-6.4-13.6-7.2a48,48,0,0,1,6.8-4.4l6.7-4.1.3,7.6C92.27,462.85,92.17,466.55,91.87,466.75Zm11.8-3.5c-3.6,2.1-7,3.8-7.5,3.8-1,0-1.3-14.3-.3-15.2.3-.4,3.7,1.2,7.4,3.5l6.9,4.1Zm28.2,3.5c-.2.3-3.4-1.2-7.1-3.2s-6.3-4.1-5.8-4.5a53.69,53.69,0,0,1,6.8-4.3l6-3.5.3,7.5C132.27,463,132.17,466.55,131.87,466.75Zm18.2-7.2c-.8.7-12.7,7.5-13.2,7.5-.3,0-.6-3.6-.6-7.9v-8l7.1,4.1C147.17,457.45,150.27,459.45,150.07,459.55Zm21.8,7.2c-.2.2-3.4-1.2-7-3.3s-6.3-4-6-4.3a72.28,72.28,0,0,1,6.7-4.1l6.2-3.6.3,7.4C172.27,463,172.17,466.45,171.87,466.75Zm-89.1,0c3.6,2.1,6.5,4,6.5,4.3,0,.6-12.5,8-13.5,8-.3,0-.5-3.6-.5-8s.2-8,.5-8A66.93,66.93,0,0,1,82.77,466.75Zm29.5,4.4c0,4.4-.3,7.9-.8,7.7-2.7-1.2-13.2-7.4-13.2-7.8,0-.6,12.1-7.8,13.3-7.9C112,463.05,112.27,466.65,112.27,471.15Zm16.5-.9c.7.6.5,1.2-.5,1.8-.8.5-3.9,2.4-6.7,4.1l-5.3,3.1V463l5.8,3.2A57.19,57.19,0,0,1,128.77,470.25Zm23.2,8.4c-.5.5-13.6-6.9-13.7-7.6,0-.3,3.1-2.2,6.8-4.2l6.7-3.7.3,7.6C152.27,474.85,152.17,478.45,152,478.65Zm12.5-11.3,7.3,4.4.3,9.6.3,9.6-8.1-4.6-8-4.5v-9.4c0-5.2.2-9.4.4-9.4S160.37,465,164.47,467.35Zm-72.2,15.8v8l-5.7-3.2c-9.4-5.2-9.4-5.2-2.2-9.3,3.5-1.9,6.7-3.6,7.2-3.6S92.27,478.65,92.27,483.15Zm11-4.5c3.3,1.9,5.8,3.9,5.5,4.3-.8,1.5-12.3,7.9-12.9,7.3-1-.9-.7-15.2.3-15.2C96.77,475.05,99.87,476.65,103.27,478.65Zm29,4.4v8l-4.8-2.7c-10.6-6.1-10.4-5.4-3.1-9.6a61.25,61.25,0,0,1,7.2-3.7C132,475.05,132.27,478.65,132.27,483.05Zm11.5-4.4c3.3,2,6.1,3.7,6.3,3.9s-2.9,2.1-6.7,4.3l-7.1,4.1v-8c0-4.3.3-7.9.8-7.9A43.74,43.74,0,0,1,143.77,478.65Zm-31.9,23.1c-.6.6-13.6-6.8-13.6-7.7,0-.3,3.1-2.2,6.8-4.2l6.7-3.7.3,7.6C112.27,497.85,112.17,501.55,111.87,501.75Zm13.7-10.2c2.6,1.5,4.7,2.8,4.5,3s-3.3,1.9-7,3.9l-6.8,3.8v-16.4l2.3,1.4C119.77,488.05,123,490,125.57,491.55Zm26.4,10.1c-.3.4-12.4-6-13.5-7.1-.2-.2,2.7-2.1,6.5-4.4l6.8-4.1.3,7.6C152.27,497.85,152.17,501.45,152,501.65Zm12.1-11.1,6.4,3.8-6.7,3.8a55.89,55.89,0,0,1-7.1,3.9c-.2,0-.4-3.6-.4-8.1s.3-7.8.8-7.6S160.67,488.45,164.07,490.55Zm-61.1,11c3.4,2,6.3,3.9,6.3,4.3,0,.7-12.3,8.2-13.4,8.2-.3,0-.6-3.6-.6-8s.3-8,.7-8A66.53,66.53,0,0,1,103,501.55Zm29.3,4.5v8l-7-3.7c-3.8-2.1-7-4-7-4.3,0-.6,12.1-7.9,13.3-8C132,498.05,132.27,501.65,132.27,506.05Zm11.5-4.1,6.7,3.8-3.9,2.3c-2.1,1.3-5.3,3.2-7,4.2l-3.3,2v-8.1c0-4.5.2-8.1.4-8.1A55.89,55.89,0,0,1,143.77,502Z" transform="translate(-2.28 35.95)"/><path class="cls-1" d="M126.27,398.15c0,10.2.1,10.9,2,10.9s2-.7,2-10.4c0-9.5-.2-10.4-2-10.9S126.27,387.75,126.27,398.15Z" transform="translate(-2.28 35.95)"/><path class="cls-1" d="M134.27,399.15c0,10.2.1,10.9,2,10.9s2-.7,2-10.4c0-9.5-.2-10.4-2-10.9S134.27,388.75,134.27,399.15Z" transform="translate(-2.28 35.95)"/><path class="cls-1" d="M103.27,400.05c0,9.1.3,11,1.5,11s1.5-1.9,1.5-11-.3-11-1.5-11S103.27,391,103.27,400.05Z" transform="translate(-2.28 35.95)"/><path class="cls-1" d="M141.27,400.55c0,9.3.2,10.5,1.9,11.5a13.53,13.53,0,0,0,2.5,1c.3,0,.6-4.9.6-10.9,0-11-.4-12.1-4.1-12.1C141.67,390.05,141.27,394.75,141.27,400.55Z" transform="translate(-2.28 35.95)"/><path class="cls-1" d="M157.27,407.85c0,10.3.3,12.1,1.8,13.5a6.47,6.47,0,0,0,2.3,1.7c.9,0-.3-24.5-1.3-25.7C157.77,394.55,157.27,396.55,157.27,407.85Z" transform="translate(-2.28 35.95)"/><path class="cls-1" d="M359.17,400c-3.7,3.7-3.8,7.9-.3,12,2.1,2.6,3.3,3.1,6.8,3.1,7.1,0,11.4-6.7,8.2-12.9C370.77,396.25,364,395.15,359.17,400Z" transform="translate(-2.28 35.95)"/><path class="cls-1" d="M385.57,398.55a11.43,11.43,0,0,0-3.3,4.9c-2,6.2,2.1,11.6,9,11.6,8.3-.1,12-9.2,6.1-15.1A9.2,9.2,0,0,0,385.57,398.55Z" transform="translate(-2.28 35.95)"/><path class="cls-1" d="M409.87,399.65a8.89,8.89,0,0,0,6.4,15.4c5.5,0,9-3.4,9-8.8a8.83,8.83,0,0,0-9-9.2A8.1,8.1,0,0,0,409.87,399.65Z" transform="translate(-2.28 35.95)"/><path class="cls-1" d="M435.17,400c-3.2,3.3-3.7,6.7-1.4,11,1.6,3.3,3.3,4.1,7.9,4.1,6.8,0,10.8-6.3,8.1-12.7C447.17,396.25,440.07,395.15,435.17,400Z" transform="translate(-2.28 35.95)"/><path class="cls-1" d="M460.77,399.25a10.93,10.93,0,0,0-3.1,5.9c-.5,2.8-.1,4.1,2.1,6.7s3.4,3.2,6.9,3.2c5.7,0,9.1-3.4,9.1-9.2C475.77,398.15,466.67,394.15,460.77,399.25Z" transform="translate(-2.28 35.95)"/><path class="cls-1" d="M165.27,414.15c0,11.6.2,13.4,2,15.6l2,2.6v-14.5c0-13.8-.6-16.8-3.2-16.8C165.67,401.05,165.27,407,165.27,414.15Z" transform="translate(-2.28 35.95)"/><path class="cls-1" d="M181.27,466c0,51.3,0,51.4,2,49.6s2-3.1,2-49c0-45.5-.1-47.4-2-49.6C181.37,414.55,181.37,414.75,181.27,466Z" transform="translate(-2.28 35.95)"/><path class="cls-1" d="M580.47,417.45a24,24,0,0,0-13.4,34.1c11.6,21.2,44.3,12.8,44.2-11.4C611.17,424.15,595.57,412.55,580.47,417.45Zm13.9,3.1c18,6.4,18.4,31.5.7,38.9-5.4,2.3-10.7,2-16.7-1a20.25,20.25,0,0,1-5.4-32.6C579.37,419.45,586.37,417.75,594.37,420.55Z" transform="translate(-2.28 35.95)"/><path class="cls-1" d="M582.77,426.45c-11.4,5.1-11.7,21-.6,26.1,15.4,6.9,28-14.6,14.3-24.4C592.67,425.45,586.57,424.65,582.77,426.45Z" transform="translate(-2.28 35.95)"/><path class="cls-1" d="M334.17,425c-6,6.1-2.3,15.6,6.1,15.6,5.5,0,9-3.7,9-9.5,0-3-.6-4.3-3.1-6.4C342.07,421.15,337.87,421.25,334.17,425Z" transform="translate(-2.28 35.95)"/><path class="cls-1" d="M361.67,423.05a9.5,9.5,0,0,0-5.4,7.8c0,5.1,4.8,10.2,9.6,10.2,3.1,0,7.4-3.5,8.5-6.8C376.87,426.55,369.37,420,361.67,423.05Z" transform="translate(-2.28 35.95)"/><path class="cls-1" d="M386.07,423.55c-3.2,1.8-5.2,7.2-3.9,10.6,3.9,10.4,18.1,7.6,18.1-3.6C400.27,424.55,391.77,420.35,386.07,423.55Z" transform="translate(-2.28 35.95)"/><path class="cls-1" d="M410.37,424.65c-2.5,2.1-3.1,3.4-3.1,6.4,0,5.8,3.5,9.5,9,9.5,8.4,0,12.1-9.5,6.1-15.6C418.67,421.25,414.47,421.15,410.37,424.65Z" transform="translate(-2.28 35.95)"/><path class="cls-1" d="M435.17,425c-4.8,4.8-3.8,11.6,2.2,14.7,7.7,3.9,16.1-4.1,12.4-11.9C446.87,421.55,440,420.25,435.17,425Z" transform="translate(-2.28 35.95)"/><path class="cls-1" d="M462.37,423.45a9.06,9.06,0,0,0-3.7,12.5c1.3,2.3,1.4,2.2,5.9-5,2.6-4,4.7-7.6,4.7-8.1C469.27,421.65,465.07,422,462.37,423.45Z" transform="translate(-2.28 35.95)"/><path class="cls-1" d="M189.27,466.05v40.5l2-3c1.9-2.8,2-4.8,2-37.2s-.1-34.4-2-37.5l-2-3.3Z" transform="translate(-2.28 35.95)"/><path class="cls-1" d="M480.17,443.85l-3.4,3.1,3.3,3.3,3.2,3.3,3.2-3.3,3.3-3.2-3.1-3.1-3.1-3.1Z" transform="translate(-2.28 35.95)"/><path class="cls-1" d="M492.77,444.05l-2.9,3,3.4,3.5,3.4,3.5-2.9,3c-1.6,1.6-3.3,3-3.8,3s-2.2-1.4-3.9-3.1l-3.1-3-3.4,3.3-3.3,3.2-3.2-3.2-3.2-3.2,3.2-3.3c2.4-2.5,2.9-3.6,2.1-4.4s-1.8-.8-3.8.2c-5.6,3.1-5.7,3.2-3.6,5.5,1.8,2,1.8,2.1-1,5-3.3,3.5-4.2,3.6-6.8,1.3-1.8-1.7-2-1.6-4.7,1.7-2.9,3.5-2.9,3.5-.9,5.5s1.9,1.9,5.1-1.3l3.2-3.2,3.3,3.2,3.3,3.2,3.5-3.4,3.5-3.4,3.5,3.4,3.5,3.4,3.5-3.4,3.5-3.4,3.3,3.2,3.4,3.3,3.4-3,3.4-3-3.5-3.6-3.4-3.5,3.4-3.5,3.4-3.5-2.9-3c-1.6-1.6-3.4-3-4-3S494.37,442.45,492.77,444.05Z" transform="translate(-2.28 35.95)"/><path class="cls-1" d="M506.77,444.05l-2.9,3,3.4,3.5,3.4,3.5-3.4,3.5-3.4,3.5,3.2,3.2,3.2,3.2,3.5-3.4,3.5-3.4,3.5,3.4,3.5,3.4,3.2-3.2,3.2-3.2-3.4-3.5-3.4-3.5,2.3-2.4,2.3-2.5-3.3-2c-3.9-2.4-5-2.6-6.7-.9-.9.9-.5,1.9,2,4.5l3.2,3.3-3.2,3.2-3.2,3.2-3-2.9c-1.6-1.6-3-3.2-3-3.6s1.1-2,2.5-3.5,2.5-3,2.5-3.4c0-.7-5.3-6-6.1-6A18,18,0,0,0,506.77,444.05Z" transform="translate(-2.28 35.95)"/><path class="cls-1" d="M197.47,466.05c0,21.2.1,22.2,1.4,16.5,1.7-7.7,1.7-25.3,0-33C197.57,443.85,197.47,444.85,197.47,466.05Z" transform="translate(-2.28 35.95)"/><path class="cls-1" d="M336.07,448.55c-5.7,3.1-6.5,9.9-1.9,14.6,6.1,6.1,15,2.1,15.1-6.7A9,9,0,0,0,336.07,448.55Z" transform="translate(-2.28 35.95)"/><path class="cls-1" d="M361.77,448.45a9,9,0,0,0-2.6,14.7c4.8,4.8,11.6,3.8,14.7-2.2C377.77,453.25,369.77,444.85,361.77,448.45Z" transform="translate(-2.28 35.95)"/><path class="cls-1" d="M388.27,447.75c-10.3,3.8-7.5,18.3,3.5,18.3,3.5,0,8.5-5,8.5-8.5,0-4.1-2.6-8.2-6.1-9.4S390.47,447,388.27,447.75Z" transform="translate(-2.28 35.95)"/><path class="cls-1" d="M412.67,448.05c-3.2,1.3-5.4,5-5.4,9.1,0,2.9.7,4.3,3.1,6.3,4.1,3.5,8.3,3.4,12-.3,4.7-4.8,3.8-11.6-2.1-14.6C417.07,446.85,415.77,446.75,412.67,448.05Z" transform="translate(-2.28 35.95)"/><path class="cls-1" d="M437.07,448.55a8.62,8.62,0,0,0-4.8,8.2c0,5.5,1.4,5.9,6.7,2,7.4-5.4,9.7-8.1,8-9.5C444.57,447.25,440,447,437.07,448.55Z" transform="translate(-2.28 35.95)"/><path class="cls-1" d="M533.27,458.55l-2.4,2.6,3.2,3.2,3.2,3.2,2.5-2.5,2.4-2.5-2.5-3.3c-1.4-1.7-2.9-3.2-3.3-3.2S534.57,457.15,533.27,458.55Z" transform="translate(-2.28 35.95)"/><path class="cls-1" d="M452.77,471.05c-1.6,1.7-3.5,2.8-4.1,2.6a1.44,1.44,0,0,0-1.8,1c-.9,2.4-.7,2.7,1,1.4,1.3-1.1,2-.9,4.7,1.8l3.2,3.2-3.2,3.2-3.2,3.2-2.4-2.3-2.4-2.2-.7,2.3a27.5,27.5,0,0,0-.6,5.2v3l3-2.9,3-2.9,3.5,3.4,3.5,3.4,3.2-3.2,3.2-3.2-3.4-3.5-3.4-3.5,3.4-3.5,3.4-3.5-2.9-3a17.2,17.2,0,0,0-3.5-3A17.2,17.2,0,0,0,452.77,471.05Z" transform="translate(-2.28 35.95)"/><path class="cls-1" d="M465.77,471.05l-2.9,3,3.4,3.5,3.4,3.5-3.4,3.5-3.4,3.5,2.9,3a18,18,0,0,0,3.4,3,29.09,29.09,0,0,0,4.1-3l3.4-3-3.4-3.5-3.4-3.5,3.2-3.2,3.2-3.2,2.9,2.8c3.2,3.1,6.3,2.9,8.1-.5,1.5-2.7,3.2-2.4,6.5,1.1l2.9,3-3.4,3.5-3.4,3.5,3.4,3.5,3.4,3.5-3.2,3.2-3.2,3.2-3.5-3.4-3.5-3.4-3.5,3.4-3.5,3.4-3.3-3.2-3.3-3.2-3.2,3.3-3.2,3.3,3.2,3.2,3.2,3.2-3.4,3.5-3.4,3.5,3.4,3.5,3.4,3.5-3.2,3.3-3.3,3.4,3.1,3.3,3.1,3.3,3.4-3.3,3.5-3.4,3.5,3.4,3.5,3.4,3.5-3.4,3.5-3.4,3.4,3.3,3.5,3.4,3.2-3.2,3.2-3.2-3.4-3.5-3.3-3.4,3.4-3.5,3.4-3.5-3.4-3.5-3.4-3.5,3.2-3.2,3.2-3.2-3.2-3.3-3.2-3.3,3.4-3.5,3.4-3.5-3.4-3.5-3.4-3.5,2.9-3c1.6-1.6,3.4-3,4-3s2.4,1.4,4,3l2.9,3-3.4,3.5-3.4,3.5,3.2,3.2,3.2,3.2,3.5-3.4,3.5-3.4,3.5,3.4,3.5,3.4,3.2-3.2,3.2-3.2-3.4-3.5-3.4-3.5,3.4-3.5,3.4-3.5-3.2-3.2-3.2-3.2-3.5,3.4-3.5,3.4-3.5-3.4-3.5-3.4-3.5,3.4-3.5,3.3-3.1-3.2-3.1-3.3-3.4,3.3-3.4,3.3-3.5-3.4-3.5-3.4-3.5,3.4-3.5,3.4-3.3-3.2a17.7,17.7,0,0,0-3.8-3.2A18,18,0,0,0,465.77,471.05Zm55,7,2.9,3-3.1,3.2-3.1,3.1-3.1-2.2c-1.7-1.2-3.1-2.7-3.1-3.4,0-1.2,4.9-6.7,6-6.7A17.2,17.2,0,0,1,520.77,478.05ZM480,505.25l3.3,3.2,3.5-3.4,3.5-3.4,3.2,3.2,3.2,3.2-3.4,3.5-3.4,3.5,3.4,3.5,3.4,3.5-3.2,3.2-3.2,3.2-3.5-3.4-3.5-3.4-3.5,3.4-3.5,3.4-3.2-3.2-3.2-3.2,3.4-3.5,3.4-3.5-3.4-3.5-3.4-3.5,2.9-3a18,18,0,0,1,3.4-3A17.7,17.7,0,0,1,480,505.25Z" transform="translate(-2.28 35.95)"/><path class="cls-1" d="M479.77,512.05l-2.9,3,3.2,3.3,3.2,3.2,3.2-3.2,3.2-3.3-2.9-3a17.2,17.2,0,0,0-3.5-3A17.2,17.2,0,0,0,479.77,512.05Z" transform="translate(-2.28 35.95)"/><path class="cls-1" d="M533.77,471.05l-2.9,3,3.4,3.5,3.4,3.5-3.4,3.5-3.4,3.5,3.4,3.5,3.4,3.5-3.2,3.3-3.2,3.3,3.2,3.2,3.2,3.2-3.4,3.5-3.4,3.5,3.4,3.5,3.4,3.5-3.4,3.5c-3.3,3.4-3.3,3.5-1.5,5.5,2.5,2.8,3.9,2.5,6.8-1.3l2.6-3.4-2.2-2.1-2.1-2.2,3.2-3.3,3.3-3.4-3.1-3.3c-1.6-1.7-3-3.5-3-3.9s1.4-2,3-3.6l3-2.9,3,2.9c1.6,1.6,3.2,2.6,3.6,2.3.9-1,1.7-11.8.8-11.8-.4,0-2.3,1.4-4.1,3.2l-3.3,3.2-3-2.9c-1.6-1.6-3-3.3-3-3.8s1.4-2.2,3.1-3.9l3-3.1-3.3-3.4-3.2-3.3,3.2-3.2,3.2-3.2,3,2.9c3.2,3.1,3.8,2.4,1.8-2.2-1.6-3.8-1.6-3.7-3.3-2.3-1.3,1.1-2.1.8-4.8-1.8a17.7,17.7,0,0,0-3.8-3.2A18,18,0,0,0,533.77,471.05Z" transform="translate(-2.28 35.95)"/><path class="cls-1" d="M322,484.85c-7.5,7.5-13.7,14.1-13.7,14.5,0,1.1,12.8,7.2,22.5,10.6l8.9,3.2,17.6-17.6,17.5-17.6-2.8-2.4c-3.6-3.2-9.6-3.4-12.2-.5-2,2.2-4.1,2-14.9-1.7a77.8,77.8,0,0,0-8-2.3C336.27,471.05,329.57,477.25,322,484.85Z" transform="translate(-2.28 35.95)"/><path class="cls-1" d="M415.27,472.45a2.82,2.82,0,0,0,1,2.1c.6.3,1-.3,1-1.4s-.4-2.1-1-2.1S415.27,471.65,415.27,472.45Z" transform="translate(-2.28 35.95)"/><path class="cls-1" d="M384.87,475.15c-3.8,3-3.3,4.2,1.4,3.5,13.4-2,12.3-1.6,10.4-3.7C394.37,472.35,388.27,472.45,384.87,475.15Z" transform="translate(-2.28 35.95)"/><path class="cls-1" d="M400.77,499.15l-19,19.1,6.5-.7c14.5-1.4,30.3-5.1,40.3-9.4l4.6-2-1.5-4.3c-1.7-4.8-8.9-18.7-10.7-20.5C420,480.35,415.67,484.15,400.77,499.15Z" transform="translate(-2.28 35.95)"/><path class="cls-1" d="M479.77,485.05l-2.9,3,3.2,3.3,3.2,3.2,3.2-3.2,3.2-3.3-2.9-3a17.2,17.2,0,0,0-3.5-3A17.2,17.2,0,0,0,479.77,485.05Z" transform="translate(-2.28 35.95)"/><path class="cls-1" d="M547.87,485l-3,3.1,2.9,3c1.6,1.6,3.2,3,3.7,3,.9,0,.9-6.4-.1-9.8l-.6-2.3Z" transform="translate(-2.28 35.95)"/><path class="cls-1" d="M452.57,498.25l-3.3,3.2-3-2.9-3-2.9v3a27.5,27.5,0,0,0,.6,5.2l.7,2.3,2.3-2.2,2.4-2.3,3,2.9c3.7,3.6,3.7,4.4,0,8-2.5,2.4-3.2,2.6-4.5,1.5s-1.4-1-.9.4a2.47,2.47,0,0,0,2.1,1.6c.7,0,2.6,1.2,4,2.6,2.3,2.3,2.4,2.8,1.3,4.9s-1,2.7,1.1,5.4c2.7,3.4,4.1,3.8,5.9,1.6,1.1-1.3.8-2.1-2-5l-3.4-3.5,3.4-3.5,3.4-3.5-3.4-3.5c-2-2.1-3.1-3.9-2.5-4.3a28.92,28.92,0,0,0,3.4-3.5l2.5-2.7-2.9-3c-1.6-1.7-3.1-3-3.5-3A15.9,15.9,0,0,0,452.57,498.25Z" transform="translate(-2.28 35.95)"/><path class="cls-1" d="M507,497.85c-3.4,3.5-3.4,4.2.3,7.7l3,2.9,3.5-3.4,3.5-3.4,3,2.9c3.7,3.6,3.7,4.4,0,8l-3,2.9,3.2,3.3,3.2,3.3-3.2,3.2-3.2,3.2-3-2.9c-1.6-1.6-3-3.2-3-3.6a13.91,13.91,0,0,1,2.7-3.9l2.6-3.2-3.1-3.1-3.2-3.2-3.2,3.3-3.2,3.2,3.4,3.5,3.4,3.5-3.4,3.5-3.4,3.5,3.2,3.2,3.2,3.2,3.5-3.4,3.5-3.4,3.5,3.4,3.5,3.4,3.2-3.2,3.2-3.2-3.4-3.5-3.4-3.5,3.4-3.5,3.4-3.5-3.4-3.5-3.4-3.5,3.2-3.1c1.8-1.7,3.2-3.5,3.2-3.9a14.14,14.14,0,0,0-3.1-3.4l-3.1-2.8-3.4,3.3-3.4,3.3-3.3-3.2a17.7,17.7,0,0,0-3.8-3.2A15.9,15.9,0,0,0,507,497.85Z" transform="translate(-2.28 35.95)"/><path class="cls-1" d="M199.07,500.45c-2.5,5.2-2.6,22.1-.2,23,.9.4,1.9.5,2.1.3s.2-6.4.1-13.7l-.3-13.3Z" transform="translate(-2.28 35.95)"/><path class="cls-1" d="M270,536.85c-18,18-32.7,33.4-32.7,34.2,0,3.9,13,29,15,29,.3,0,19.1-18.6,41.8-41.3l41.3-41.3-5.8-1.8a154.17,154.17,0,0,1-16-6.7c-5.7-2.7-10.4-4.9-10.5-4.9S288.07,518.75,270,536.85Z" transform="translate(-2.28 35.95)"/><path class="cls-1" d="M547.37,512.45c-1.3,1.4-2,2.9-1.6,3.5,1.1,1.9,2.1,1.2,3.2-2.4a17.6,17.6,0,0,0,.9-3.5A19.73,19.73,0,0,0,547.37,512.45Z" transform="translate(-2.28 35.95)"/><path class="cls-1" d="M190.87,514.55c-2.2,3.3-2,6.2.4,6.8,1.8.5,2,0,2-4.4,0-2.7-.2-4.9-.4-4.9A9.16,9.16,0,0,0,190.87,514.55Z" transform="translate(-2.28 35.95)"/><path class="cls-1" d="M427.27,514.65c-8.8,3.9-27.7,7.7-43.5,8.9l-8,.6L325.87,574l-49.8,49.8,5.8,3.6c6.5,3.8,18.4,9.1,23,10.1,2.8.6,5.9-2.4,65.4-61.9,34.4-34.4,62-62.5,61.5-62.5A32.2,32.2,0,0,0,427.27,514.65Z" transform="translate(-2.28 35.95)"/><path class="cls-1" d="M174.27,532.15c-8.1,7-29.7,16.9-37,16.9-1.6,0-2.7,1.3-4.5,5.2a44.66,44.66,0,0,0,15.6,55.7,53.07,53.07,0,0,0,12.1,5.8l5.8,1.6v24.9c0,21.4.2,24.8,1.5,24.8s1.5-3.4,1.5-24.9c0-24.3,0-24.9,2-24.4,1.1.3,5,0,8.7-.7,22.3-3.8,37.3-21.4,37.3-43.7,0-13.6-4.3-23.6-14.2-32.9-5.5-5.2-9.9-7.8-16.7-9.8C179.17,528.55,178.37,528.65,174.27,532.15Z" transform="translate(-2.28 35.95)"/><path class="cls-1" d="M467.27,537.55c-1,1.2-.6,1.8,2.2,3.5,3.4,2.1,4.3,2.3,6.9,2.1.8-.1,2.4.8,3.4,1.9,2.1,2.3,6.3,2.7,7.1.6,1.1-2.9,3.7-2.7,6.9.4l3.1,3,3.4-3.5,3.4-3.5-3.2-3.2-3.2-3.2-3.5,3.4-3.5,3.4-3.5-3.4-3.5-3.4-3.5,3.4-3.5,3.4-3.3-3.2C469.17,535.55,469,535.55,467.27,537.55Z" transform="translate(-2.28 35.95)"/><path class="cls-1" d="M506.77,539.05l-2.9,3,2.8,2.9c3,3.1,4.6,3.1,8.2-.1,1.1-1,2.8-1.6,3.6-1.3s3.5-.3,5.8-1.5l4.3-2.2-2.2-2.1-2.1-2.1-3.5,3.4-3.5,3.4-3.3-3.2a17.7,17.7,0,0,0-3.8-3.2A14.63,14.63,0,0,0,506.77,539.05Z" transform="translate(-2.28 35.95)"/><path class="cls-1" d="M394.07,598.15c-23,23-41.8,42.1-41.8,42.3,0,.6,7.8-1.2,15-3.5a104.64,104.64,0,0,0,41-25.3c3-3.1,5.7-5.6,6-5.6s.4,18.2.3,40.5c-.3,35.4-.1,40.5,1.2,40.5s1.5-5.4,1.5-42.2v-42.1l5.4-9.1c5.7-9.6,9.5-18.1,11.9-26.8,2.4-8.4,2.8-10.8,2-10.7C436.07,556.15,417,575.05,394.07,598.15Z" transform="translate(-2.28 35.95)"/></svg>